<?xml version="1.0" standalone="no"?>
<!DOCTYPE svg PUBLIC "-//W3C//DTD SVG 20010904//EN"
 "http://www.w3.org/TR/2001/REC-SVG-20010904/DTD/svg10.dtd">
<svg version="1.0" xmlns="http://www.w3.org/2000/svg"
 width="423.000000pt" height="423.000000pt" viewBox="0 0 423.000000 423.000000"
 preserveAspectRatio="xMidYMid meet">
<metadata>
Created by potrace 1.11, written by Peter Selinger 2001-2013
</metadata>
<g transform="translate(0.000000,423.000000) scale(0.100000,-0.100000)"
fill="#000000" stroke="none">
<path d="M1320 4077 c-83 -23 -157 -83 -195 -157 l-16 -30 -429 0 -430 0 0
-1855 0 -1855 1875 0 1875 0 0 1855 0 1855 -469 0 -469 0 -26 44 c-57 98 -150
150 -266 150 -116 0 -209 -52 -266 -150 -25 -42 -28 -44 -74 -44 -46 0 -49 2
-74 44 -57 98 -150 150 -266 150 -116 0 -209 -52 -266 -150 -25 -43 -27 -44
-79 -44 -52 0 -54 1 -79 44 -69 118 -218 179 -346 143z m165 -96 c22 -10 56
-35 74 -55 l35 -36 -194 0 -194 0 35 36 c44 47 102 74 159 74 25 0 63 -9 85
-19z m690 0 c22 -10 56 -35 74 -55 l35 -36 -194 0 -194 0 35 36 c44 47 102 74
159 74 25 0 63 -9 85 -19z m680 0 c22 -10 56 -35 74 -55 l35 -36 -194 0 -194
0 35 36 c44 47 102 74 159 74 25 0 63 -9 85 -19z m-1635 -1191 l0 -80 90 0 90
0 0 80 c0 64 3 80 15 80 13 0 15 -26 15 -175 0 -147 -2 -175 -15 -175 -11 0
-15 18 -17 78 l-3 77 -87 3 -88 3 0 -81 c0 -73 -2 -80 -20 -80 -19 0 -20 7
-20 168 0 93 3 172 7 175 3 4 12 7 20 7 10 0 13 -20 13 -80z m1170 60 c0 -11
-7 -20 -15 -20 -8 0 -15 9 -15 20 0 11 7 20 15 20 8 0 15 -9 15 -20z m-709
-106 c21 -22 24 -35 24 -99 0 -64 -3 -77 -24 -99 -20 -22 -33 -26 -78 -26 -44
0 -58 5 -78 25 -22 21 -25 33 -25 100 0 67 3 79 25 100 20 20 34 25 78 25 45
0 58 -4 78 -26z m119 11 c0 -18 8 -18 40 0 32 18 50 19 50 0 0 -8 -20 -23 -45
-34 l-45 -20 0 -90 c0 -74 -3 -91 -15 -91 -13 0 -15 21 -15 125 0 104 2 125
15 125 8 0 15 -7 15 -15z m292 -2 c15 -13 18 -32 18 -105 0 -70 3 -90 15 -94
8 -4 15 -11 15 -18 0 -7 -31 -12 -95 -13 -87 -2 -95 -1 -110 19 -17 26 -19 61
-5 88 11 20 66 40 112 40 34 0 41 11 28 44 -9 24 -14 26 -69 26 -56 0 -79 9
-64 24 3 3 36 6 71 6 47 0 71 -5 84 -17z m128 2 c0 -18 8 -18 40 0 32 18 50
19 50 0 0 -8 -20 -23 -45 -34 l-45 -20 0 -90 c0 -74 -3 -91 -15 -91 -13 0 -15
21 -15 125 0 104 2 125 15 125 8 0 15 -7 15 -15z m170 -110 c0 -104 -2 -125
-15 -125 -13 0 -15 21 -15 125 0 104 2 125 15 125 13 0 15 -21 15 -125z m110
34 c0 -104 9 -129 48 -129 71 0 72 2 72 116 0 97 1 104 20 104 19 0 20 -7 20
-123 l0 -124 -78 -1 c-108 -2 -114 5 -120 143 -4 102 -4 105 17 105 20 0 21
-5 21 -91z m415 82 c6 -1 38 2 71 5 56 6 63 4 78 -17 22 -32 24 -229 2 -229
-10 0 -15 24 -18 101 -4 108 -9 119 -60 119 -56 0 -58 -4 -58 -116 0 -97 -1
-104 -20 -104 -19 0 -20 7 -20 98 0 107 -6 122 -53 122 -61 0 -67 -11 -67
-120 0 -82 -3 -100 -15 -100 -13 0 -15 20 -15 124 l0 123 83 -3 c45 -1 87 -3
92 -3z m255 -636 c53 -27 53 -103 0 -130 -25 -13 -112 -15 -625 -15 -513 0
-600 2 -625 15 -52 27 -53 102 -2 129 41 23 1209 23 1252 1z m-1730 -10 c32
-17 46 -51 36 -90 -13 -51 -39 -55 -361 -55 -245 0 -301 3 -325 15 -52 27 -53
102 -2 129 41 23 609 23 652 1z m290 -5 c11 -11 20 -33 20 -50 0 -17 -9 -39
-20 -50 -11 -11 -33 -20 -50 -20 -17 0 -39 9 -50 20 -11 11 -20 33 -20 50 0
17 9 39 20 50 11 11 33 20 50 20 17 0 39 -9 50 -20z m1740 0 c11 -11 20 -33
20 -50 0 -17 -9 -39 -20 -50 -11 -11 -33 -20 -50 -20 -17 0 -39 9 -50 20 -11
11 -20 33 -20 50 0 17 9 39 20 50 11 11 33 20 50 20 17 0 39 -9 50 -20z
m-1040 -655 c53 -27 53 -103 0 -130 -25 -13 -116 -15 -670 -15 -554 0 -645 2
-670 15 -52 27 -53 102 -2 129 41 23 1299 23 1342 1z m1056 -18 c13 -15 24
-37 24 -47 0 -10 -11 -32 -24 -47 l-24 -28 -379 -3 c-409 -2 -419 -1 -437 51
-13 36 2 78 34 94 19 10 112 12 403 11 l379 -3 24 -28z m-2596 -7 c11 -11 20
-33 20 -50 0 -17 -9 -39 -20 -50 -43 -43 -120 -11 -120 50 0 38 32 70 70 70
17 0 39 -9 50 -20z m1030 -635 c53 -27 53 -103 0 -130 -44 -23 -1076 -23
-1120 0 -52 27 -53 102 -2 129 41 23 1079 23 1122 1z m1560 -10 c53 -27 53
-103 0 -130 -44 -23 -1266 -23 -1310 0 -52 27 -53 102 -2 129 41 23 1269 23
1312 1z"/>
<path d="M1549 2723 c-9 -10 -14 -40 -14 -78 0 -76 13 -95 66 -95 49 0 69 27
69 95 0 68 -20 95 -69 95 -24 0 -44 -6 -52 -17z"/>
<path d="M1976 2627 c-12 -9 -17 -23 -14 -42 3 -27 7 -30 40 -33 54 -5 78 12
78 53 0 35 -1 35 -43 35 -24 0 -51 -6 -61 -13z"/>
</g>
</svg>
